<?xml version="1.0" encoding="utf-8"?>
<!-- Generator: Adobe Illustrator 27.5.0, SVG Export Plug-In . SVG Version: 6.00 Build 0)  -->
<svg version="1.1" xmlns="http://www.w3.org/2000/svg" xmlns:xlink="http://www.w3.org/1999/xlink" x="0px" y="0px"
	 viewBox="0 0 2000 2000" style="enable-background:new 0 0 2000 2000;" xml:space="preserve">
<g id="Layer_1">
</g>
<g id="Layer_2">
	<g>
		<path style="fill:#E87256;" d="M529.142,864.068c-1.744-4.498-0.243-8.161,1.268-11.495c4.76-10.505,9.448-21.085,14.972-31.193
			c10.532-19.273,21.058-38.593,32.664-57.222c8.852-14.209,20.361-26.453,35.758-33.978c17.527-8.566,35.09-17.122,53.027-24.769
			c26.945-11.487,53.834-23.031,79.93-36.386c18.84-9.641,38.746-16.541,59.325-21.462c2.321-0.555,4.742-0.694,7.569-1.089
			c-0.319,14.979,9.779,23.048,19.441,31.075c14.235,11.825,31.208,17.507,49.267,20.176c44.73,6.61,83.069-7.396,116.798-36.32
			c13.556-11.625,25.004-25.172,36.141-39.014c5.779-7.183,12.802-12.859,20.502-17.835c2.43-1.57,4.759-1.796,7.543-1.556
			c22.06,1.897,44.133,3.651,66.204,5.429c47.974,3.864,95.567,10.331,142.46,21.336c19.888,4.667,39.325,10.77,57.84,19.64
			c4.88,2.338,7.297,5.537,8.576,10.768c3.266,13.354,7.268,26.526,10.769,39.825c1.066,4.047,1.887,8.253,2.066,12.419
			c0.303,7.04-1.935,9.041-8.939,9.124c-14.979,0.177-29.521-2.719-43.987-6.185c-17.688-4.238-35.423-8.357-53.632-9.491
			c-10.838-0.675-21.771-1.291-32.494,1.316c-14.479,3.52-25.482,11.279-30.166,26.067c-3.551,11.21,0.219,22.401,9.593,29.649
			c7.475,5.78,16.005,9.461,24.89,12.423c19.156,6.385,38.358,12.648,56.308,22.109c20.471,10.789,39.483,23.888,58.52,36.95
			c19.778,13.571,39.769,26.785,61.689,36.778c1.427,0.651,3.001,1.971,3.569,3.362c7.307,17.904,18.364,33.401,30.846,47.919
			c14.318,16.654,31.195,30.247,50.649,40.504c18.198,9.595,37.451,15.116,58.21,13.528c5.471-0.419,10.834-2.19,16.262-3.262
			c2.515-0.497,5.094-0.689,7.593-1.245c1.465-0.326,3.024-0.836,4.211-1.71c10.712-7.891,21.869-15.287,31.875-24
			c11.295-9.835,19.303-22.527,26.531-35.61c0.923-1.671,1.932-3.295,2.901-4.941c0.478,0.065,0.957,0.131,1.435,0.196
			c0,1.777,0.225,3.587-0.034,5.325c-3.805,25.477-13.506,48.659-27.916,69.856c-14.033,20.643-31.438,37.887-53.18,50.436
			c-20.209,11.665-41.855,17.437-65.373,17.469c-34.673,0.047-65.954-10.29-94.55-29.157c-7.702-5.082-14.1-12.121-21.232-18.102
			c-2.569-2.154-2.723-4.973-2.945-7.808c-0.966-12.367-1.733-24.75-2.771-37.111c-1.056-12.576-2.299-25.137-3.591-37.691
			c-0.162-1.572-1.126-3.062-1.833-4.887c-4.291,1.926-3.203,5.186-3.109,7.745c0.221,5.972,0.827,11.931,1.307,17.893
			c0.853,10.594,1.776,21.182,2.582,31.78c1.209,15.897,2.44,31.794,3.476,47.703c0.778,11.947,1.183,23.917,1.9,35.868
			c1.075,17.907,2.3,35.804,3.417,53.709c0.676,10.842,1.013,21.712,1.949,32.531c2.537,29.341,4.409,58.768,10.186,87.735
			c2.744,13.761,7.131,27.003,12.64,39.888c1.123,2.627,2.231,5.261,3.8,8.963c-2.399-0.268-4.096-0.105-5.503-0.668
			c-19.488-7.793-39.952-9.888-60.654-10.174c-14.432-0.199-28.901-0.257-43.304,0.535c-18.34,1.008-36.65,2.728-54.934,4.533
			c-15.643,1.545-31.279,3.322-46.835,5.569c-27.847,4.022-55.764,7.766-83.412,12.912c-43.145,8.03-86.162,16.798-129.097,25.896
			c-29.057,6.157-57.93,13.215-86.798,20.23c-57.536,13.98-115.05,28.058-172.498,42.398c-28.616,7.143-57.17,14.617-84.762,25.241
			c-10.572,4.071-21.013,8.486-30.234,15.217c-6.701,4.892-12.898,10.293-14.888,20.531c-2.052-2.855-3.543-4.598-4.667-6.552
			c-4.515-7.849-6.624-16.33-6.855-25.401c-0.403-15.842,1.956-31.409,4.534-46.93c5.011-30.175,10.203-60.322,15.553-90.439
			c6.32-35.576,12.858-71.113,19.355-106.657c5.579-30.521,11.287-61.02,13.979-91.98c0.172-1.973,0.869-3.98,0.622-5.881
			c-0.152-1.169-1.634-2.165-2.519-3.239c-0.77,0.944-2.061,1.806-2.225,2.847c-0.968,6.12-1.657,12.284-2.474,18.428
			c-0.321,2.415-1.026,4.817-1.045,7.228c-0.081,10.43-5.447,18.423-11.428,26.311c-22.935,30.249-49.901,56.554-79.004,80.724
			c-23.401,19.434-47.66,37.766-73.063,54.528c-13.528,8.927-27.384,17.276-42.214,23.966c-20.421,9.213-41.458,12.153-63.572,7.881
			c-19.061-3.682-37.315-9.441-54.591-18.419c-25.389-13.195-40.794-34.145-48.618-61.228c-5.171-17.9-6.512-36.138-5.452-54.676
			c2.037-35.62,12.216-69.283,24.263-102.514c0.351-0.967,1.18-1.761,1.898-2.797c3.985,1.221,4.006,5.255,6.099,7.583
			c2.411,2.682,1.632,5.302,0.823,8.511c-1.341,5.324-2.003,10.908-2.222,16.411c-0.786,19.757-0.409,39.406,3.395,58.987
			c7.517,38.694,30.509,65.184,64.221,83.513c13.403,7.287,27.763,11.788,42.988,13.076c28.304,2.395,52.849-6.612,74.13-25.071
			c18.248-15.828,30.362-35.661,37.913-58.446c1.922-5.801,3.871-11.593,6.05-18.114c1.811,4.464,2.356,13.258,1.354,19.509
			c-1.262,7.87-2.671,15.715-4.008,23.573c-0.183,1.075-0.656,2.252-0.385,3.209c0.254,0.898,1.23,2.051,2.048,2.197
			c0.786,0.14,2.316-0.672,2.583-1.406c1.134-3.117,2.097-6.322,2.802-9.564c3.333-15.322,3.474-30.838,2.268-46.373
			c-0.246-3.168-1.731-6.24-2.92-10.298c0.651-0.548,1.773-1.916,3.218-2.648c17.017-8.621,34.246-16.838,51.102-25.761
			c34.354-18.186,70.736-30.6,108.383-39.836c23.245-5.703,46.346-12.042,69.338-18.696c6.712-1.942,13.284-5.258,19.136-9.131
			c22.207-14.698,16.999-38.973-0.196-50.754c-7.413-5.079-15.85-7.281-24.599-6.803c-10.149,0.554-20.274,1.991-30.343,3.487
			c-20.591,3.058-41.064,7.073-61.729,9.434c-16.525,1.888-33.217,0.657-49.754-1.547c-2.634-0.351-5.296-0.506-7.924-0.892
			c-4.54-0.667-5.999-2.559-4.348-6.79c2.085-5.344,4.276-10.794,7.391-15.564c13.713-21,27.685-41.833,41.732-62.613
			c20.018-29.612,40.328-59.028,60.217-88.726c8.29-12.379,15.323-25.497,18.667-40.248c1.535-6.77,2.211-13.535,0.511-20.405
			c-3.41-13.781-13.731-18.671-26.278-12.113c-10.002,5.228-17.728,13.267-25.208,21.5c-15.96,17.568-31.849,35.201-47.767,52.807
			c-12.343,13.652-24.48,27.498-37.11,40.878c-7.127,7.55-14.919,14.499-22.717,21.371
			C537.352,862.28,533.718,864.264,529.142,864.068z M1002.529,989.039c-0.891,2.14-2.004,4.144-2.574,6.292
			c-4.261,16.078-8.007,32.304-12.678,48.259c-13.343,45.581-32.103,88.826-57.283,129.163
			c-7.989,12.798-16.585,25.217-24.723,37.925c-1.234,1.927-4.457,4.601-1.211,6.726c2.683,1.756,4.167-1.71,5.432-3.566
			c16.375-24.029,32.611-48.164,45.701-74.202c15.772-31.373,28.945-63.831,38.518-97.63c4.404-15.549,7.573-31.448,11.348-47.177
			C1005.589,992.624,1006.339,990.496,1002.529,989.039z"/>
		<path style="fill:#262961;" d="M936.561,1612.877c-2.276,0.878-1.99,2.483-1.313,4.322c6.895,18.719,8.939,38.382,10.726,58.012
			c2.289,25.146,4.127,50.34,5.725,75.54c1.249,19.687,1.882,39.413,2.706,59.126c0.927,22.154,1.835,44.309,2.596,66.468
			c0.257,7.488,0.041,14.993,0.041,22.632c-4.338,1.195-404.876,1.481-412.062,0.112c2.118-9.72,4.474-19.392,6.31-29.162
			c5.773-30.717,11.002-61.54,17.101-92.191c6.49-32.618,13.414-65.159,20.736-97.6c7.032-31.156,13.47-62.414,18.099-94.011
			c6.686-45.642,15.078-90.96,24.617-136.083c2.474-11.705,4.392-23.534,6.325-35.345c0.429-2.62-0.159-5.407-0.333-9.357
			c5.853-1.853,12.674-4.327,19.66-6.171c37.09-9.792,74.131-19.789,111.359-29.031c54.231-13.464,108.552-26.58,162.937-39.411
			c57.613-13.593,115.477-26.073,173.909-35.667c31.256-5.132,62.575-9.97,93.98-14.068c21.509-2.807,43.214-4.111,64.831-6.08
			c20.341-1.853,40.745-2.816,61.14-2.052c18.14,0.679,36.333,1.797,53.737,7.871c8.667,3.025,16.612,7.189,23.562,13.377
			c15.973,14.221,17.554,37.111,9.89,53.843c-6.258,13.664-16.877,23.237-29.146,31.182c-5.906,3.825-11.952,7.57-19.817,9.537
			c-1.039-5.164-2.089-10.046-2.997-14.955c-5.486-29.648-10.873-59.314-16.506-88.934c-0.56-2.945,0.03-6.871-3.764-8.517
			c-3.016,1.364-2.2,3.728-1.836,5.815c4.043,23.146,7.931,46.323,12.259,69.416c7.106,37.914,14.301,75.814,21.848,113.643
			c6.03,30.231,12.659,60.342,18.986,90.513c10.649,50.783,21.499,101.527,31.825,152.376c7.282,35.855,12.612,72.036,16.27,108.46
			c2.414,24.035,5.568,48.007,5.238,72.238c-0.047,3.468-0.006,6.936-0.006,10.796c-160.169,0-320.526,0-481.249,0
			c-0.294-4.263-0.683-8.195-0.817-12.135c-0.51-15.078-0.853-30.162-1.417-45.239c-0.622-16.612-1.439-33.218-2.127-49.828
			c-0.239-5.767-0.273-11.543-0.523-17.31c-1.549-35.863-3.683-71.688-7.978-107.343c-1.883-15.631-4.193-31.217-9.044-46.278
			C940.193,1615.659,940.101,1615.689,936.561,1612.877z M716.336,1422.769c2.358,1.733,3.333,2.979,4.476,3.159
			c1.449,0.228,3.037-0.395,4.56-0.676c39.424-7.257,78.752-15.103,118.301-21.604c35.814-5.887,71.821-10.682,107.831-15.27
			c34.464-4.392,69.019-8.106,103.576-11.716c20.462-2.137,40.988-3.752,61.517-5.12c15.473-1.031,30.998-1.273,46.497-1.934
			c2.191-0.093,4.406-0.41,6.526-0.953c0.857-0.22,2.214-1.555,2.079-1.982c-0.342-1.081-1.225-2.33-2.219-2.774
			c-1.127-0.503-2.616-0.289-3.941-0.234c-5.971,0.25-11.941,0.534-17.909,0.844c-18.136,0.942-36.3,1.532-54.399,2.947
			c-22.498,1.759-44.971,3.95-67.404,6.417c-30.137,3.314-60.294,6.578-90.318,10.755c-42.54,5.917-85.04,12.202-127.415,19.19
			c-27.09,4.468-53.928,10.462-80.864,15.849C724.075,1420.298,721.019,1421.42,716.336,1422.769z M1253.887,1436.629
			c1.128,2.195,1.949,3.971,2.92,5.66c18.03,31.38,37.882,61.588,58.75,91.136c12.162,17.221,25.06,33.873,39.339,49.403
			c1.705,1.855,3.658,6.048,6.752,3.155c2.532-2.368-0.975-4.564-2.586-6.471c-6.291-7.45-12.889-14.657-18.889-22.332
			c-24.623-31.503-46.537-64.882-67.798-98.704c-4.131-6.572-8.141-13.221-12.219-19.827
			C1258.889,1436.595,1257.742,1434.186,1253.887,1436.629z M713.312,1456.199c-2.034,3.051-3.926,5.729-5.657,8.507
			c-15.473,24.834-30.519,49.946-46.494,74.452c-13.192,20.236-27.493,39.749-41.246,59.621c-1.671,2.415-4.166,4.68-2.833,8.933
			c1.588-0.654,3.122-0.895,4.078-1.768c1.45-1.327,2.557-3.051,3.708-4.679c25.094-35.491,49.987-71.118,72.119-108.575
			c5.976-10.114,11.789-20.325,17.722-30.464C715.874,1460.233,717.116,1458.374,713.312,1456.199z"/>
		<path style="fill:#DC977C;" d="M1595.93,852.317c8.241,0.152,14.65-5.94,22.518-7.678c0.244,0.679,0.791,1.414,0.606,1.8
			c-8.286,17.321-12.777,35.91-18.218,54.183c-3.484,11.7-7.094,23.351-12.85,34.211c-9.427,17.786-23.226,30.278-43.199,34.649
			c-16.722,3.66-33.077,1.072-48.976-4.783c-18.152-6.685-34.04-17.017-48.451-29.852c-16.43-14.634-29.572-31.801-40.225-50.956
			c-1.146-2.06-1.961-4.304-3.699-8.176c19.737,6.03,38.1,10.354,57.239,10.219c28.225-0.199,51.144-3.193,55.592-7.692
			c-0.631-3.003-2.908-2.956-5.186-2.677c-12.296,1.507-24.549,3.544-36.886,4.47c-14.41,1.082-28.799-0.06-43.036-2.777
			c-25.033-4.779-47.639-15.408-68.867-29.069c-18.667-12.013-36.968-24.594-55.464-36.875
			c-23.228-15.422-47.723-28.234-74.499-36.447c-7.631-2.341-15.149-5.114-22.554-8.097c-4.29-1.728-8.353-4.099-12.342-6.477
			c-12.297-7.331-15.067-22.618-4.735-35.706c5.223-6.617,12.333-10.098,20.283-11.841c9.826-2.154,19.842-2.002,29.823-1.336
			c21.999,1.468,43.291,6.882,64.663,11.814c14.329,3.306,28.895,4.763,43.53,4.645c12.163-0.099,24.309-1.541,36.477-1.966
			c26.432-0.924,52.304,1.501,76.354,13.893c1.964,1.012,4.213,1.469,6.636,2.287c0.821-4.367-1.972-5.102-3.917-6.13
			c-10.835-5.726-22.178-10.129-34.182-12.77c-16.207-3.565-32.624-3.292-49.05-2.747c-9.025,0.299-18.043,0.821-27.672,1.271
			c2.292-8.427,1.076-15.745-0.975-23.084c-8.296-29.683-16.789-59.317-24.606-89.127c-9.058-34.544-17.719-69.197-26.109-103.91
			c-7.36-30.454-16.52-60.344-26.44-90.035c-4.495-13.454-8.973-26.981-10.075-41.249c-0.39-5.051-0.488-10.324,0.507-15.248
			c3.656-18.104,21.119-24.128,35.66-12.558c8.188,6.516,13.86,15.119,18.088,24.401c6.795,14.917,13.121,30.079,18.902,45.418
			c8.058,21.381,15.14,43.131,23.226,64.501c3.922,10.365,9.009,20.328,17.106,28.314c0.949,0.936,1.849,1.938,2.889,2.762
			c8.292,6.572,16.513,5.954,23.509-2.048c7.096-8.115,9.018-18.177,9.597-28.479c1.259-22.404-1.544-44.594-3.649-66.845
			c-3.492-36.901-10.805-73.217-15.969-109.856c-1.885-13.377-2.981-26.929-0.57-40.418c0.619-3.461,1.569-6.945,2.938-10.176
			c5.691-13.438,19.372-17.828,31.946-10.364c6.447,3.827,11.252,9.317,15.124,15.646c6.788,11.094,11.183,23.234,13.966,35.801
			c7,31.607,13.486,63.328,20.159,95.008c4.752,22.564,8.639,45.333,15.856,67.311c1.175,3.579,2.507,7.134,4.125,10.53
			c1.423,2.988,3.066,5.959,5.104,8.55c6.105,7.758,13.72,7.584,18.679-1.026c3.15-5.469,5.676-11.694,6.748-17.881
			c2.076-11.973,3.501-24.128,4.146-36.264c0.859-16.17,0.597-32.397,1.035-48.594c0.576-21.279,1.418-42.55,5.652-63.507
			c1.894-9.374,4.338-18.578,8.985-27.04c0.853-1.554,1.682-3.134,2.684-4.591c10.03-14.59,25.65-14.826,36.199-0.523
			c4.298,5.827,6.957,12.482,7.952,19.554c1.418,10.075,2.833,20.229,3.073,30.376c0.776,32.858,0.637,65.739,1.615,98.589
			c0.507,17.016,1.006,34.165,4.894,50.874c1.397,6,3.278,12.047,6.006,17.543c5.341,10.762,14.593,13.235,25.054,7.377
			c7.431-4.161,13.727-9.744,19.497-15.951c20.642-22.207,37.433-47.287,54.13-72.447c6.383-9.617,12.811-19.216,19.592-28.553
			c3.503-4.823,7.495-9.403,11.845-13.473c7.332-6.861,14.046-5.32,18.714,3.577c4.582,8.733,4.58,18.031,2.999,27.279
			c-2.565,15.007-9.423,28.576-15.253,42.469c-12.015,28.63-24.343,57.136-35.907,85.948c-8.383,20.886-13.746,42.644-14.856,65.262
			c-0.957,19.485-1.676,38.981-2.684,58.463c-1.848,35.72-5.146,71.231-17.245,105.262c-10.992,30.915-28.302,57.286-56.173,75.583
			c-7.005,4.599-14.883,7.865-22.34,11.779c-2.019,1.06-3.971,2.25-5.953,3.381C1595.337,850.787,1595.634,851.552,1595.93,852.317z
			"/>
		<path style="fill:#DC977C;" d="M564.514,968.209c-5.264-0.265-10.087-0.597-14.916-0.734c-25.452-0.721-49.072,6.235-71.66,17.337
			c-1.962,0.965-5.663,1.571-4.288,4.727c1.579,3.624,4.261,0.554,6.098-0.342c26.608-12.981,54.667-17.901,84.069-15.211
			c9.917,0.907,19.791,2.29,29.682,3.469c25.376,3.026,50.41-0.07,75.365-4.3c12.67-2.148,25.262-4.776,37.958-6.742
			c8.938-1.384,17.934-2.682,27.057-0.747c7.169,1.52,13.432,4.382,18.425,9.87c8.286,9.109,9.072,25.957-2.922,34.814
			c-6.158,4.547-12.812,8.038-20.116,10.093c-17.912,5.039-35.832,10.068-53.859,14.672c-28.802,7.356-57.877,13.962-85.198,25.92
			c-20.503,8.974-40.519,19.098-60.524,29.163c-19.834,9.978-39.365,20.631-61.265,25.521c-21.529,4.807-43.059,5.216-64.42-1.162
			c-2.4-0.716-4.746-1.69-6.38,1.287c0.59,3.328,3.506,3.996,5.952,4.485c8.233,1.648,16.492,3.441,24.831,4.231
			c20.636,1.953,40.547-1.768,59.896-8.898c0.622-0.229,1.265-0.435,1.917-0.535c0.418-0.064,0.868,0.085,1.856,0.208
			c-0.15,1.398-0.165,2.831-0.473,4.198c-4.163,18.449-9.392,36.568-18.791,53.119c-14.456,25.459-34.56,44.36-63.448,52.255
			c-20.761,5.673-41.251,3.818-61.182-3.939c-22.243-8.656-40.629-22.542-54.949-41.7c-10.907-14.591-16.252-31.374-19.166-49.092
			c-3.037-18.468-3.082-37.086-2.622-55.717c0.07-2.849,0.742-5.686,1.203-8.518c0.056-0.346,0.535-0.623,1.449-1.622
			c1.529,1.317,3.275,2.497,4.618,4.03c8.159,9.312,17.87,16.551,28.946,21.995c1.581,0.777,3.232,1.57,4.936,1.864
			c0.78,0.135,2.177-0.727,2.539-1.494c0.344-0.729,0.04-2.346-0.568-2.829c-1.542-1.224-3.372-2.121-5.163-2.99
			c-22.409-10.864-36.826-28.609-44.869-51.909c-6.183-17.911-9.688-36.284-11.078-55.212c-2.111-28.748,2.384-56.572,10.416-83.971
			c6.951-23.713,17.542-45.981,27.864-68.335c3.886-8.415,8.411-16.544,12.094-25.042c4.979-11.49,6.946-23.795,8.526-36.137
			c2.786-21.752,5.434-43.522,8.345-65.257c1.182-8.823,3.469-17.444,7.945-25.216c1.959-3.401,4.532-6.608,7.399-9.29
			c4.893-4.577,11.525-3.895,15.811,1.35c4.751,5.813,7.083,12.769,8.609,19.989c2.834,13.409,2.017,26.953,1.04,40.455
			c-1.055,14.575-2.606,29.114-3.629,43.691c-0.431,6.134-0.277,12.335,0.035,18.483c0.154,3.041,0.847,6.214,2.039,9.011
			c2.417,5.671,7.373,6.851,11.639,2.449c3.34-3.448,6.406-7.532,8.358-11.887c6.072-13.546,11.703-27.296,17.235-41.075
			c10.082-25.108,19.598-50.45,30.092-75.382c5.498-13.062,12.212-25.694,22.64-35.793c4.105-3.976,8.696-6.704,14.742-6.591
			c5.299,0.1,9.388,2.173,12.58,6.265c5.51,7.061,6.842,15.274,6.311,23.893c-0.565,9.176-3.132,17.923-6.684,26.333
			c-7.587,17.965-15.508,35.789-23.052,53.771c-7.389,17.61-14.284,35.415-17.777,54.308c-1.289,6.973-2.495,14.034-0.635,21.045
			c0.831,3.133,2.091,6.418,4.057,8.929c3.91,4.993,9.343,5.617,14.712,2.396c6.641-3.985,11.682-9.604,15.494-16.213
			c5.874-10.185,11.081-20.765,17.164-30.817c16.429-27.147,33.02-54.2,49.857-81.096c7.649-12.219,15.701-24.22,24.219-35.845
			c4.54-6.196,10.197-11.666,15.875-16.892c2.649-2.437,6.381-4.283,9.914-5.047c7.022-1.517,12.963,0.667,17.396,6.857
			c7.225,10.087,8.356,21.287,6.451,33.001c-2.825,17.37-10.667,32.905-19.015,48.052c-16.383,29.725-33.51,59.039-49.942,88.738
			c-6,10.845-10.999,22.254-16.233,33.509c-1.385,2.978-2.262,6.286-2.82,9.537c-1.167,6.797,3.807,11.362,10.456,9.427
			c3.347-0.974,6.523-2.783,9.535-4.611c9.63-5.844,16.777-14.458,24.304-22.573c12.815-13.817,25.384-27.863,38.016-41.849
			c13.232-14.651,26.304-29.45,39.669-43.979c6.902-7.503,14.126-14.733,21.535-21.737c3.015-2.85,6.681-5.257,10.447-7.018
			c8.992-4.205,15.161-1.081,17.226,8.7c1.733,8.213,0.464,16.353-2.015,24.294c-3.399,10.892-8.693,20.933-14.881,30.4
			c-12.75,19.508-25.874,38.773-38.944,58.07c-19.666,29.036-39.57,57.913-59.044,87.077
			C572.438,945.722,566.495,955.711,564.514,968.209z"/>
		<path style="fill:#DC977C;" d="M1065.269,334.451c1.635-1.977,3.38-4.232,5.276-6.352c4.664-5.214,10.019-9.26,17.028-11.014
			c13.239-3.314,24.144,4.455,25.055,18.135c1.725,25.897-10.249,44.173-31.925,56.875c-2.793,1.637-6.128,2.558-9.333,3.232
			c-5.804,1.222-9.473,4.452-11.179,10.099c-3.909,12.936-7.672,25.921-11.859,38.766c-5.483,16.821-13.389,32.426-25.383,45.601
			c-15.937,17.507-35.127,30.558-56.893,39.696c-26.583,11.161-54.402,16.35-83.173,14.494
			c-30.641-1.977-57.711-13.383-80.733-33.831c-23.335-20.726-40.295-45.972-51.606-74.967
			c-7.928-20.322-12.528-41.503-15.082-63.152c-1.873-15.875-3.031-31.767-2.676-47.778c0.613-27.681,6.895-54.016,18.709-78.973
			c13.515-28.55,31.897-53.743,53.866-76.367c0.619-0.638,1.241-1.275,1.889-1.882c5.332-4.986,5.276-4.861,12.076-1.67
			c14.258,6.691,26.598,16.164,37.537,27.23c14.656,14.826,28.809,30.168,42.782,45.647c22.8,25.258,48.464,46.735,78.806,62.484
			c18.134,9.413,36.377,18.538,55.759,25.092c7.123,2.409,14.537,3.954,21.809,5.929
			C1058.742,332.486,1061.439,333.328,1065.269,334.451z M1083.044,345.844c0.517-1.003,0.757-2.353,1.52-2.793
			c3-1.728,6.148-3.206,9.276-4.703c1.833-0.878,4.696-0.704,3.904-4.068c-8.501-1.995-23.08,7.153-23.977,15.262
			c-0.131,1.187,1.42,2.974,2.653,3.755c0.861,0.545,2.524-0.071,3.802-0.308c4.928-0.916,6.722,0.799,5.006,5.598
			c-1.317,3.683-3.743,6.956-5.345,10.558c-0.498,1.12,0.087,2.72,0.176,4.101c1.346-0.396,3.4-0.375,3.917-1.257
			c2.653-4.524,5.198-9.161,7.203-13.998c1.285-3.1-0.337-6.189-2.5-8.483C1087.254,347.998,1085.122,347.152,1083.044,345.844z"/>
		<path style="fill:#80443B;" d="M1050.161,599.551c-0.991-0.852-2.73-2.56-4.68-3.977c-3.4-2.471-6.638-5.731-10.479-6.893
			c-5.217-1.579-7.497-5.023-9.386-9.403c-4.697-10.89-7.508-22.324-8.6-34.049c-1.006-10.803-1.011-21.699-1.462-32.554
			c-0.223-5.375,1.475-9.693,5.603-13.512c16.058-14.858,25.969-33.62,32.789-54.076c3.638-10.912,6.404-22.116,9.594-33.179
			c0.672-2.331,1.127-4.833,2.337-6.866c0.884-1.485,2.739-3.131,4.339-3.34c20.813-2.721,47.324-30.298,48.03-55.888
			c0.121-4.377,0.406-8.852-0.295-13.133c-3.066-18.717-21.071-27.476-37.802-18.408c-3.453,1.872-7.005,4.256-9.369,7.294
			c-4.257,5.47-9.063,5.681-15.234,4.332c-13.719-3.001-26.928-7.374-39.683-13.154c-21.037-9.533-41.825-19.528-61.036-32.519
			c-18.873-12.762-35.259-28.247-50.579-45.016c-14.518-15.89-28.976-31.873-44.226-47.044
			c-12.955-12.887-27.809-23.456-45.134-30.034c-0.813-0.309-1.647-0.561-3.158-1.072c-25.722,21.293-45.126,47.864-60.95,77.101
			c-15.944,29.458-23.135,61.514-25.388,95.998c-1.641-1.719-2.696-2.41-3.173-3.384c-14.141-28.868-19.21-59.436-15.893-91.25
			c2.084-19.99,7.298-39.224,18.017-56.593c10.315-16.713,24.698-28.887,41.934-37.952c18.382-9.668,38.079-15.648,58.021-21.003
			c12.629-3.391,25.12-7.39,38.227-8.604c13.89-1.286,27.791-2.446,41.686-3.673c2.862-0.253,5.721-0.807,8.58-0.795
			c22.651,0.095,45.15,1.356,67.118,7.717c22.941,6.643,43.349,18.033,62.13,32.504c23.081,17.783,42.763,38.652,57.171,64.193
			c10.909,19.338,17.551,40.168,21.657,61.888c3.091,16.354,5.711,32.894,13.122,48.001c5.955,12.137,12.32,24.099,19.058,35.818
			c11.394,19.817,23.272,39.355,32.056,60.551c9.083,21.915,14.145,44.794,15.934,68.371c0.805,10.604,1.291,21.306,0.833,31.916
			c-1.089,25.216-7.289,49.05-21.47,70.326c-2.079,3.119-4.663,5.915-7.134,8.755c-5.391,6.197-11.427,9.133-20.394,7.937
			c-15.338-2.046-30.911-2.286-46.375-3.434c-14.124-1.049-28.221-2.485-42.355-3.34
			C1059.858,597.848,1055.488,598.957,1050.161,599.551z M1049.4,307.853c4.842-2.704,2.597-5.154,1.517-7.392
			c-6.934-14.367-14.04-28.651-20.874-43.065c-12.474-26.31-26.895-51.457-44.242-74.874c-1.07-1.445-2.637-2.521-3.973-3.769
			c-0.469,0.248-0.938,0.495-1.406,0.743c0.13,1.318-0.123,2.847,0.466,3.91c1.389,2.509,3.159,4.811,4.81,7.171
			c13.501,19.3,24.86,39.85,35.331,60.901c8.388,16.864,16.526,33.852,24.834,50.755
			C1046.79,304.122,1048.106,305.819,1049.4,307.853z M1103.762,429.282c-3.621,2.066-2.284,4.198-1.407,6.174
			c5.603,12.624,9.219,25.816,11.185,39.457c2.7,18.726,3.395,37.483-0.842,56.068c-1.717,7.529-4.445,14.824-6.634,22.249
			c-0.648,2.198-2.089,4.713,2.148,6.468c1.085-1.902,2.493-3.763,3.288-5.856c7.553-19.878,11.171-40.23,9.611-61.7
			c-1.448-19.917-5.797-38.893-13.727-57.117C1106.486,432.963,1104.971,431.17,1103.762,429.282z"/>
		<path style="fill:#80443B;" d="M855.339,545.63c0.848,26.504-2.322,51.781-14.435,75.274c-2.607,5.056-5.969,9.976-9.966,13.976
			c-2.772,2.774-7.109,5.125-10.953,5.49c-17.622,1.675-34.308,6.699-50.768,12.755c-4.992,1.836-9.941,3.829-14.771,6.05
			c-2.606,1.198-4.816,1.186-6.563-0.998c-3.018-3.774-6.292-7.466-8.595-11.666c-8.634-15.748-13.456-32.853-15.684-50.534
			c-1.658-13.152-2.835-26.504-2.527-39.728c0.334-14.339,2.471-28.652,4.12-42.942c2.411-20.89,5.212-41.734,7.578-62.629
			c0.746-6.584,0.655-13.264,0.893-19.903c0.086-2.394,0.014-4.795,0.014-7.725c5.181,1.18,7.941,3.768,9.412,8.081
			c7.9,23.173,20.304,43.823,35.764,62.653c18.981,23.119,41.987,40.616,70.887,49.636
			C851.407,543.939,852.996,544.697,855.339,545.63z M787.913,592.138c3.217-2.226,2.204-4.921,1.701-7.492
			c-1.271-6.5-3.01-12.943-3.758-19.5c-0.924-8.103-1.029-16.3-1.505-24.455c-0.134-2.302,0.563-5.043-3.711-6.071
			c-2.836,8.649-1.4,17.375-0.838,25.926C780.881,576.991,783.905,588.144,787.913,592.138z"/>
		<path style="fill:#DC977C;" d="M843.345,628.326c7.426-12.265,11.61-25.559,14.304-39.304c2.683-13.69,3.914-27.558,2.885-41.979
			c55.16,9.279,104.229-3.942,149.572-37.054c0.135,4.613,0.357,7.827,0.301,11.036c-0.27,15.372,0.551,30.652,4.942,45.473
			c2.125,7.171,5.067,14.099,7.723,21.368c-16.153,14.788-29.978,32.344-49.01,44.365c-19.494,12.313-40.422,20.405-63.353,22.411
			c-16.306,1.427-32.344-0.42-47.211-8.246C855.494,642.182,848.704,636.676,843.345,628.326z"/>
		<path style="fill:#FFFFFF;" d="M840.867,633.744c2.426,2.659,4.595,5.474,7.193,7.813c14.14,12.732,30.888,18.531,49.817,18.93
			c36.215,0.763,67.149-12.703,94.5-35.271c8.515-7.026,15.807-15.537,23.656-23.37c1.416-1.413,2.685-3.016,4.266-4.207
			c1.907-1.438,4.423-3.909,6.059-3.495c3.849,0.974,8.314-1.64,11.711,2.379c2.222,2.628,5.334,4.504,7.71,6.441
			c-8.821,10.033-17.106,19.825-25.801,29.237c-8.117,8.787-16.134,17.789-25.14,25.606c-19.742,17.135-42.128,29.525-68.308,33.744
			c-27.128,4.372-53.517,2.236-78.334-10.571c-9.953-5.136-18.764-11.842-25.318-21.135c-1.018-1.443-1.994-2.962-2.69-4.576
			c-2.081-4.823-1.181-7.281,3.471-9.733c3.074-1.62,6.398-2.843,9.257-4.769C835.629,638.939,837.883,636.428,840.867,633.744z"/>
		<path style="fill:#919191;" d="M623.825,1459.419c-7.12,0.729-13.571-0.713-19.92-2.79c-1.01-0.33-1.953-0.96-2.831-1.587
			c-2.649-1.893-5.231-3.88-7.881-5.772c-0.898-0.641-1.962-1.045-2.879-1.663c-5.755-3.881-6.796-8.289-3.217-14.184
			c1.025-1.689,2.219-3.408,3.716-4.656c12.478-10.395,27.204-16.306,42.419-21.569
			C634.206,1413.397,629.12,1441.266,623.825,1459.419z"/>
		<path style="fill:#DC977C;" d="M737.684,416.275c-1.683-0.62-2.797-0.792-3.627-1.371c-19.632-13.683-28.579-34.812-23.964-57.748
			c0.7-3.48,1.554-7.409,5.462-8.474c3.987-1.086,6.509,2.087,8.785,4.792c2.588,3.074,3.924,6.541,4.551,10.728
			c2.355,15.741,5.324,31.39,8.053,47.074C737.193,412.71,737.372,414.156,737.684,416.275z"/>
		<path style="fill:#919191;" d="M1626.149,847.295c1.957,7.043,1.847,14.326,1.516,21.537c-0.077,1.675-2.354,3.25-4.059,5.436
			c0.005,0.05-0.219,1.146,0.226,1.741c3.63,4.859,2.66,9.937,1.066,15.155c-5.487,17.96-15.984,32.936-27.966,47.014
			c-1.006,1.182-2.609,1.856-3.935,2.766c-0.372-0.305-0.745-0.609-1.118-0.914c1.241-2.64,2.516-5.264,3.717-7.922
			c7.139-15.797,11.283-32.571,16.135-49.125c2.984-10.181,6.559-20.19,9.967-30.243c0.675-1.989,1.804-3.824,2.724-5.731
			C1624.997,847.104,1625.573,847.199,1626.149,847.295z"/>
		<g>
			<path style="fill:#D15436;" d="M1006.465,991.379c-1.354,6.555-2.429,12.225-3.701,17.85
				c-14.895,65.871-40.407,127.232-77.994,183.454c-4.32,6.463-8.628,12.934-12.953,19.394c-0.865,1.292-1.734,2.586-2.683,3.815
				c-1.668,2.161-3.433,4.386-6.608,2.783c-2.153-1.087-2.248-3.562-0.224-7.044c1.449-2.492,3.14-4.845,4.758-7.236
				c17.312-25.591,33.829-51.635,47.075-79.65c19.64-41.538,34.048-84.818,43.915-129.652c0.286-1.299,0.557-2.603,0.914-3.883
				c0.585-2.099,1.853-4.044,4.125-3.316C1004.552,988.365,1005.529,990.355,1006.465,991.379z"/>
			<path style="fill:#0B0D33;" d="M719.426,1427.646c-1.013-0.916-3.024-1.889-3.497-3.357c-0.736-2.282,1.28-3.617,3.333-4.144
				c4.727-1.213,9.484-2.311,14.25-3.364c44.888-9.922,90.162-17.743,135.658-24.205c41.979-5.962,83.974-11.929,126.09-16.79
				c38.153-4.404,76.457-7.568,114.736-10.78c17.918-1.504,35.934-1.868,53.91-2.651c2.172-0.094,4.456,0.148,6.521,0.781
				c0.967,0.296,2.207,1.956,2.122,2.887c-0.118,1.281-1.128,3.158-2.195,3.534c-2.246,0.792-4.77,0.929-7.194,1.062
				c-20.182,1.109-40.387,1.868-60.545,3.299c-22.812,1.62-45.618,3.482-68.361,5.865c-28.704,3.009-57.38,6.356-85.997,10.098
				c-32.795,4.288-65.606,8.599-98.241,13.937c-38.981,6.376-77.786,13.837-116.66,20.868
				C728.992,1425.475,724.676,1426.522,719.426,1427.646z"/>
			<path style="fill:#0B0D33;" d="M1363.375,1583.974c-0.197,3.679-2.953,5.447-5.317,3.996c-2.033-1.248-3.752-3.09-5.402-4.864
				c-17.915-19.258-33.57-40.314-48.02-62.207c-16.759-25.391-32.801-51.256-49.121-76.936c-1.064-1.675-2.311-3.454-2.609-5.322
				c-0.222-1.396,0.574-3.847,1.601-4.309c1.123-0.506,3.394,0.328,4.509,1.317c1.435,1.272,2.238,3.267,3.278,4.973
				c21.749,35.686,44.516,70.706,69.549,104.181c8.77,11.727,18.599,22.661,27.893,33.999
				C1361.236,1580.634,1362.473,1582.681,1363.375,1583.974z"/>
			<path style="fill:#0B0D33;" d="M619.052,1608.861c-3.66,0.211-5.655-2.212-4.513-4.826c1.141-2.612,2.837-5.017,4.514-7.353
				c28.646-39.917,55.834-80.794,81.025-122.988c2.619-4.387,5.221-8.786,7.864-13.159c0.802-1.328,1.453-3.014,2.655-3.759
				c1.286-0.797,3.329-1.221,4.674-0.751c0.808,0.282,1.509,2.732,1.202,3.939c-0.532,2.093-1.813,4.017-2.9,5.944
				c-25.583,45.343-54.257,88.689-84.6,130.956c-2.203,3.068-4.317,6.207-6.662,9.162
				C621.276,1607.331,619.764,1608.258,619.052,1608.861z"/>
			<path style="fill:#C7623C;" d="M1082.771,353.923c-2.175,0.311-4.121,0.812-6.069,0.822c-4.059,0.021-6.407-3.109-4.571-6.677
				c4.236-8.23,10.508-14.236,20.023-15.979c1.076-0.197,2.419-0.486,3.265-0.033c1.397,0.748,3.365,1.994,3.461,3.163
				c0.093,1.142-1.661,3.221-2.945,3.547c-4.364,1.108-8.6,2.164-11.506,5.993c8.689,6.817,9.724,12.979,3.767,22.828
				c-1.257,2.078-2.494,4.378-4.333,5.82c-1.249,0.98-3.826,1.339-5.282,0.725c-2.084-0.879-2.095-3.21-0.95-5.18
				c1.226-2.107,2.672-4.089,3.855-6.218C1082.876,360.237,1084.438,357.707,1082.771,353.923z"/>
			<path style="fill:#4D2923;" d="M982.099,177.676c0.8,0.695,2.311,1.643,3.334,2.968c2.71,3.51,5.227,7.17,7.788,10.794
				c14.509,20.541,26.462,42.535,37.22,65.227c6.555,13.826,13.401,27.514,20.093,41.275c0.869,1.787,2.05,3.595,2.247,5.48
				c0.152,1.458-0.583,3.6-1.686,4.462c-1.767,1.382-3.867,0.562-5.156-1.309c-1-1.451-1.803-3.051-2.58-4.64
				c-7.594-15.54-15.187-31.082-22.737-46.644c-11.542-23.792-24.454-46.78-39.842-68.328c-1.021-1.43-2.081-2.932-2.641-4.566
				C977.312,179.979,979.037,177.613,982.099,177.676z"/>
			<path style="fill:#4D2923;" d="M1122.112,507.339c0.349,13.596-3.891,31.196-10.439,48.345c-0.393,1.029-0.666,2.371-1.448,2.925
				c-1.31,0.927-3.224,2.109-4.441,1.737c-1.145-0.35-2.321-2.54-2.394-3.977c-0.096-1.892,0.714-3.897,1.405-5.753
				c14.308-38.444,10.843-76.259-3.932-113.691c-0.566-1.435-1.435-2.938-1.374-4.377c0.056-1.319,0.887-3.23,1.917-3.704
				c1.005-0.462,3.192,0.134,3.975,1.035c1.412,1.624,2.298,3.765,3.172,5.79C1117.735,456.971,1121.947,479.285,1122.112,507.339z"
				/>
			<path style="fill:#4D2923;" d="M791.193,589.423c-0.834,0.958-1.914,3.196-3.541,3.713c-1.056,0.335-3.539-1.523-4.261-2.962
				c-1.158-2.306-1.411-5.074-2.005-7.656c-3.194-13.888-4.396-27.962-3.851-42.19c0.207-5.401,1.352-7.412,4.059-6.906
				c4.121,0.77,3.231,4.229,3.203,6.938c-0.148,14.246,1.495,28.263,4.984,42.074C790.268,584.361,790.575,586.333,791.193,589.423z
				"/>
			<path style="fill:#FFFFFF;" d="M867.512,468.042c-9.743,1.694-17.038-1.172-23.874-4.832
				c-9.039-4.839-13.874-16.064-12.061-26.142c1.593-8.855,9.199-15.971,19.067-16.773c4.985-0.405,10.275-0.028,15.101,1.239
				c8.318,2.183,16.084,1.517,24.074-1.348c6.86-2.46,13.953-4.336,21.046-6.045c3.173-0.765,6.617-0.826,9.904-0.628
				c14.076,0.844,23.69,11.736,22.844,25.804c-0.417,6.931-4.109,12.051-9.66,15.901c-5.775,4.005-12.385,6.06-19.216,6.985
				C898.478,464.405,882.171,466.251,867.512,468.042z"/>
			<path d="M767.775,312.541c-5.646,0.069-9.176-1.065-11.264-4.744c-2.212-3.896-1.595-7.886,0.968-11.278
				c1.843-2.439,4.088-4.916,6.712-6.366c13.988-7.73,28.128-15.188,42.285-22.607c1.922-1.007,4.204-1.482,6.378-1.819
				c3.527-0.547,6.711,0.451,8.824,3.46c1.987,2.829,1.796,6.12,0.091,8.85c-1.855,2.971-4.116,5.856-6.76,8.126
				c-3.689,3.167-7.712,6.05-11.923,8.483c-9.035,5.221-18.226,10.182-27.474,15.018C772.72,311.175,769.44,311.945,767.775,312.541
				z"/>
			<path d="M954.395,250.838c8.21,0,16.423-0.139,24.628,0.046c5.991,0.135,11.332,1.768,14.62,7.527
				c2.477,4.339,1.833,6.841-2.957,8.729c-2.256,0.889-4.632,1.726-7.02,1.99c-14.351,1.582-28.741,2.879-43.097,0.231
				c-4.329-0.798-8.571-2.179-12.758-3.576c-1.847-0.616-3.559-1.803-5.152-2.975c-2.319-1.707-3.842-4.309-2.597-6.925
				c0.927-1.947,3.121-4.015,5.143-4.554c3.352-0.893,7.018-0.724,10.556-0.78c6.21-0.098,12.422-0.027,18.633-0.027
				C954.395,250.627,954.395,250.732,954.395,250.838z"/>
			<path d="M980.659,335.588c-0.377,6.743-2.022,13.054-7.07,18.028c-6.683,6.585-15.79,6.45-22.509-0.05
				c-8.416-8.14-10.073-29.515,5.787-37.68c5.791-2.981,11.197-1.965,16.07,1.99C978.496,322.39,980.454,328.601,980.659,335.588z"
				/>
			<path d="M792.11,349.028c0.951-10.316,4.878-16.77,12.677-19.948c5.553-2.263,10.391-1.265,14.656,2.846
				c8.419,8.115,8.54,24.393,0.252,32.654c-7.481,7.456-18.506,6.191-23.552-3.137C794.107,357.679,793.414,353.188,792.11,349.028z
				"/>
			<path style="fill:#C7623C;" d="M868.958,331.001c-0.187,11.55-2.584,19.98-7.367,27.71c-1.867,3.018-3.889,5.942-5.702,8.991
				c-2.686,4.519-2.272,8.897,1.007,12.971c1.389,1.725,3.001,3.275,4.342,5.034c1.358,1.781,1.701,4.103-0.321,5.25
				c-1.387,0.787-4.164,0.929-5.306,0.047c-7.312-5.651-13.493-15.308-7.179-26.866c1.167-2.135,2.52-4.187,3.954-6.155
				c8.066-11.071,10.611-23.231,7.379-36.571c-0.365-1.508-0.831-3.011-0.998-4.543c-0.245-2.25,0.716-4.316,3.009-4.334
				c1.359-0.011,2.852,1.552,4.043,2.666c0.554,0.518,0.605,1.637,0.763,2.506C867.536,322.928,868.453,328.156,868.958,331.001z"/>
			<path style="fill:#0B0D33;" d="M963.478,1882.832c-1.867-47.534-3.268-95.092-5.705-142.596
				c-1.718-33.496-3.966-67.023-10.469-100.039c-1.581-8.025-4.009-15.912-6.499-23.719c-1.404-4.403-3.616-5.695-5.962-4.831
				c-2.291,0.845-2.557,2.975-0.903,7.577c5.612,15.614,7.544,31.971,9.418,48.291c7.083,61.678,9.014,123.667,10.848,185.658
				c0.394,13.332,0.94,26.66,1.4,39.99c0.052,1.51,0.007,3.024,0.007,5.011h60.747l0.007-0.007c-17.35,0-34.685,0-52.048,0
				C964.028,1892.939,963.677,1887.888,963.478,1882.832z"/>
			<path d="M1766.041,368.256c-6.462-9.631-16.005-11.322-25.2-4.192c-4.17,3.233-7.948,7.163-11.224,11.314
				c-5.362,6.794-10.273,13.955-15.189,21.088c-12.481,18.113-24.66,36.437-37.345,54.405c-8.978,12.717-18.729,24.9-30.305,35.392
				c-4.228,3.832-9.024,7.255-14.06,9.919c-5.686,3.008-9.87,1.654-12.883-4.021c-2.466-4.644-4.323-9.757-5.565-14.877
				c-3.741-15.419-4.466-31.239-4.821-47.004c-0.611-27.113-0.545-54.241-1.035-81.358c-0.309-17.101-0.334-34.254-3.604-51.151
				c-2.234-11.542-6.203-22.308-15.178-30.474c-11.848-10.78-27.028-10.249-37.938,1.434c-2.699,2.89-5.123,6.212-6.931,9.718
				c-2.531,4.909-4.74,10.057-6.43,15.315c-5.065,15.758-7.259,32.09-7.98,48.532c-1.227,27.978-1.786,55.985-2.781,83.974
				c-0.443,12.451-1.527,24.874-5.354,36.822c-1.131,3.532-3.006,6.892-4.963,10.071c-1.427,2.318-3.815,2.469-5.523,0.211
				c-1.994-2.635-4.138-5.367-5.259-8.41c-3.064-8.319-6.365-16.661-8.25-25.283c-6.546-29.933-12.29-60.041-18.808-89.981
				c-4.91-22.551-10.247-45.02-15.966-67.38c-2.869-11.216-7.779-21.743-14.706-31.179c-4.951-6.744-10.904-12.302-18.737-15.561
				c-13.46-5.601-27.052-1.295-34.849,11.033c-3.504,5.539-5.265,11.683-6.33,18.103c-2.704,16.293-0.474,32.416,2.039,48.429
				c5.992,38.185,12.866,76.247,16.109,114.806c1.284,15.271,2.139,30.594,2.623,45.911c0.273,8.655-0.686,17.342-4.256,25.455
				c-5.254,11.941-13.466,13.498-21.636,3.39c-4.827-5.973-9.025-12.775-12.032-19.832c-5.912-13.872-11.081-28.082-16.039-42.333
				c-7.807-22.438-14.631-45.267-25.412-66.522c-4.495-8.863-9.997-17.273-15.644-25.474c-3.941-5.724-9.61-9.818-16.147-12.498
				c-14.995-6.148-30.193,0.087-36.041,15.21c-1.65,4.266-2.482,9.013-2.796,13.6c-1.006,14.697,3.155,28.599,7.378,42.427
				c8.041,26.327,17.145,52.371,24.088,78.982c13.172,50.48,23.997,101.568,38.974,151.591c0.336,1.122,0.173,2.393,0.28,4.241
				c-49.81-21.936-102.545-28.537-155.54-36.395c0.867-1.283,1.245-2.058,1.812-2.652c10.641-11.146,17.578-24.458,22.764-38.803
				c9.825-27.182,10.707-55.18,7.761-83.559c-3.441-33.159-13.24-64.302-29.549-93.355c-9.243-16.466-18.687-32.822-28.175-49.149
				c-10.502-18.072-17.252-37.416-20.757-58.014c-3.549-20.858-8.729-41.288-18.025-60.452
				c-20.174-41.59-51.907-72.188-91.211-95.454c-18.749-11.099-39.097-18.016-60.596-21.335
				c-29.904-4.617-59.811-3.258-89.696,0.485c-26.809,3.358-52.487,11.359-78.075,19.475c-10.723,3.401-21.15,8.179-31.103,13.475
				c-25.138,13.375-42.864,33.588-52.442,60.529c-10.832,30.468-12.597,61.606-5.989,93.237c3.202,15.327,9.27,29.631,15.629,43.834
				c1.023,2.286,1.854,4.659,2.858,7.207c-10.418,0.664-14.17,3.644-16.94,12.902c-0.506,1.693-0.902,3.444-1.113,5.196
				c-2.63,21.807,3.681,40.428,20.168,55.186c2.903,2.599,4.149,5.246,4.275,9.095c0.694,21.216-2.158,42.122-4.916,63.064
				c-2.755,20.915-5.841,41.82-7.564,62.829c-2.181,26.601,1.022,52.797,9.32,78.271c4.132,12.686,9.463,24.769,18.318,35.458
				c-1.815,1.036-3.073,1.89-4.437,2.514c-21.401,9.781-42.68,19.845-64.262,29.21c-24.854,10.785-50.084,20.725-73.091,35.316
				c-0.369,0.234-1.017,0.029-1.912,0.029c3.074-6.416,6.029-12.369,8.799-18.408c5.109-11.141,9.476-22.534,10.794-34.852
				c1.274-11.909-0.942-23.049-7.847-32.976c-8.69-12.494-21.419-14.983-34.222-6.64c-3.324,2.166-6.612,4.658-9.205,7.623
				c-6.279,7.179-12.827,14.27-18.052,22.197c-26.897,40.813-53.581,81.773-76.824,124.845c-3.162,5.859-6.364,11.742-10.132,17.212
				c-2.476,3.595-5.67,6.896-9.13,9.567c-5.594,4.318-9.542,2.8-10.702-4.292c-0.775-4.734-0.632-9.772,0.003-14.554
				c1.911-14.394,6.354-28.183,11.79-41.559c8.192-20.158,17.004-40.063,25.503-60.097c4.602-10.846,9.006-21.777,10.759-33.531
				c1.195-8.015,1.149-16.042-2.036-23.618c-1.612-3.834-3.661-7.682-6.325-10.838c-7.782-9.22-18.98-10.879-29.396-4.831
				c-6.692,3.886-11.611,9.605-15.986,15.823c-8.357,11.878-14.847,24.815-20.192,38.233c-10.516,26.4-20.382,53.058-30.81,79.494
				c-3.823,9.691-8.363,19.107-12.827,28.53c-1.232,2.6-3.367,4.772-5.087,7.14c-0.563-0.161-1.127-0.323-1.69-0.484
				c-0.439-4.549-1.435-9.125-1.214-13.641c0.674-13.754,1.923-27.479,2.748-41.228c0.798-13.299,1.743-26.609,1.882-39.922
				c0.108-10.292-2.139-20.375-6.829-29.625c-1.973-3.891-4.616-7.668-7.724-10.71c-5.698-5.577-13.389-5.972-20.243-1.889
				c-5.143,3.064-8.598,7.647-11.47,12.729c-4.199,7.428-6.981,15.449-8.188,23.827c-2.883,20.003-5.649,40.032-7.898,60.113
				c-2.393,21.37-6.639,42.087-17.164,61.154c-3.322,6.019-6.287,12.269-8.968,18.603c-7.093,16.758-14.798,33.324-20.726,50.496
				c-16.861,48.841-19.352,98.226-3.025,147.842c1.097,3.333,0.249,6.015-0.981,8.925c-11.283,26.689-19.841,54.206-24.671,82.809
				c-4.253,25.187-5.032,50.358,0.675,75.496c8.4,37,29.333,63.591,64.472,78.669c13.111,5.626,26.616,9.923,40.509,13.063
				c26.542,5.999,52.114,3.34,76.506-8.905c8.132-4.083,16.212-8.321,24.024-12.978c22.365-13.334,43.359-28.676,63.969-44.544
				c37.443-28.829,72.729-59.932,101.92-97.402c0.794-1.019,1.235-2.313,1.841-3.479c0.485,0.387,0.97,0.775,1.455,1.162
				c-0.162,1.503-0.228,3.023-0.5,4.505c-2.852,15.508-5.853,30.99-8.593,46.518c-10.963,62.117-21.954,124.23-32.671,186.389
				c-2.11,12.241-3.532,24.651-4.409,37.044c-1.125,15.904,1.451,31.163,12.09,43.877c10.684,12.767,24.354,20.473,40.91,22.908
				c2.544,0.374,5.058,0.955,7.588,1.44c-0.191,1.413-0.256,2.071-0.372,2.719c-6.116,34.323-12.551,68.593-18.264,102.983
				c-5.534,33.309-11.273,66.558-18.573,99.538c-7.918,35.77-15.776,71.561-23.007,107.474
				c-6.487,32.218-12.031,64.625-18.121,96.925c-1.345,7.132-3.233,14.162-4.94,21.534c0,0,925.242-0.02,916.304-0.027
				c0,0-1.185-13.563-1.726-19.729c-2.68-30.542-4.984-61.138-8.629-91.569c-5.233-43.69-13.715-86.868-22.741-129.92
				c-16.951-80.852-33.989-161.686-50.954-242.535c-1.313-6.255-2.329-12.572-3.361-18.196c8.905-5.212,17.344-9.661,25.258-14.902
				c11.082-7.339,20.113-16.778,26.197-28.775c10.599-20.897,7.975-44.466-7.398-60.772c-6.199-6.575-10.588-14.146-14.435-22.043
				c-6.242-12.816-10.562-26.363-13.547-40.322c-5.034-23.536-7.22-47.464-8.954-71.378c-3.487-48.104-6.258-96.259-9.31-144.395
				c-0.047-0.748,0.097-1.508,0.183-2.679c1.193,0.62,1.851,0.799,2.285,1.212c21.355,20.349,47.109,32.255,75.428,39.091
				c36.664,8.851,72.076,5.84,105.111-13.175c40.131-23.099,66.345-57.728,80.668-101.423c5.913-18.039,9.538-36.566,6.131-55.756
				c-0.227-1.28,0.079-2.648,0.066-3.975c-0.066-6.655,0.089-13.324-0.306-19.96c-0.394-6.624-1.347-13.215-2.084-20.096
				c23.084-16.812,38.601-38.69,49.555-64.033c11.858-27.435,17.49-56.433,19.853-85.98c2.143-26.795,2.686-53.715,4.293-80.558
				c0.649-10.848,1.847-21.702,3.505-32.444c3.173-20.551,10.352-39.956,18.339-59.027c12.266-29.292,24.888-58.435,37.277-87.676
				c3.908-9.223,7.125-18.696,8.349-28.702C1773.74,387.995,1772.28,377.556,1766.041,368.256z M707.702,278.714
				c-3.946-26.389-1.706-52.309,7.017-77.575c8.811-25.52,25.34-44.501,48.903-57.532c18.425-10.19,38.455-15.968,58.446-22.037
				c29.604-8.987,59.959-12.456,90.691-13.231c29.125-0.734,58.023,1.776,84.684,14.38c57.974,27.406,99.737,69.671,117.361,132.876
				c3.036,10.887,5.039,22.082,7.153,33.203c3.139,16.516,8.561,32.199,16.731,46.858c8.327,14.941,17.032,29.671,25.512,44.528
				c11.258,19.724,21.391,39.968,27.283,62.037c7.398,27.709,10.672,55.885,7.905,84.506c-1.966,20.344-7.597,39.736-18.583,57.162
				c-3.516,5.577-8.057,10.585-12.591,15.42c-3.639,3.881-8.288,4.956-13.926,4.456c-21.464-1.904-42.985-3.167-64.479-4.742
				c-8.859-0.649-17.695-1.699-26.563-2.134c-4.093-0.201-8.237,0.635-13.333,1.088c-5.354-4.13-10.934-9.999-18.964-12.292
				c-1.484-0.424-2.583-2.88-3.472-4.599c-5.062-9.785-8.164-20.313-9.148-31.161c-1.221-13.466-1.192-27.044-1.799-40.569
				c-0.142-3.164,1.095-5.352,3.386-7.477c15.141-14.044,25.78-31.14,32.494-50.521c4.571-13.196,8.275-26.709,11.934-40.198
				c1.41-5.2,3.149-9.081,9.31-9.215c1.706-0.037,3.434-0.862,5.082-1.504c23.446-9.146,41.481-36.398,40.52-61.469
				c-0.143-3.736-0.757-7.556-1.826-11.137c-4.113-13.772-16.695-20.838-30.722-17.64c-7.894,1.799-14.396,5.981-19.565,11.973
				c-2.75,3.188-5.609,4.056-9.334,2.949c-11.474-3.41-23.288-6.002-34.322-10.501c-28.024-11.426-55.041-24.899-79.322-43.3
				c-18.36-13.913-33.928-30.668-49.152-47.803c-13.731-15.456-27.458-30.926-43.409-44.205
				c-9.432-7.852-19.531-14.677-30.684-19.871c-9.777-4.553-10.085-4.863-17.988,2.826c-7.948,7.732-15.654,15.807-22.675,24.379
				c-19.713,24.064-35.861,50.244-45.333,80.149c-5.25,16.575-8.673,33.521-10.348,50.827c-0.231,2.387-0.628,4.758-0.948,7.136
				C715.171,310.142,710.11,294.816,707.702,278.714z M861.227,548.62c53.883,8.283,102.484-3.833,147.547-36.459
				c-0.729,26.602,0.258,51.796,12.442,75.115c-11.904,11.47-23.029,23.323-35.333,33.79
				c-21.126,17.973-45.778,28.731-73.429,32.059c-14.311,1.723-28.394,0.48-41.965-4.726c-10.602-4.067-19.452-10.417-26.118-20.01
				C858.071,603.55,861.827,576.753,861.227,548.62z M848.373,535.982c-24.162-8.206-44.137-22.676-60.84-41.737
				c-15.646-17.855-28.167-37.694-36.604-59.976c-8.377-22.123-12.951-45.096-15.697-68.543
				c-2.231-19.059-2.822-38.138-1.098-57.192c1.322-14.618,5.105-28.832,9.803-42.758c8.995-26.668,23.815-50.03,40.948-72.066
				c8.184-10.527,16.677-20.782,27.449-29.67c14.465,5.869,26.367,14.663,37.56,24.569c16.692,14.773,31.471,31.398,45.898,48.285
				c37.642,44.062,85.823,71.78,139.57,90.968c6.658,2.377,13.73,3.595,20.611,5.346c1.279,0.325,2.634,0.463,3.833,0.971
				c5.05,2.14,4.974,2.127,8.628-2.043c2.337-2.667,4.587-5.556,7.409-7.615c3.35-2.445,7.071-4.729,10.984-5.986
				c11.108-3.57,20.708,2.131,23.226,13.473c2.408,10.844,0.559,21.271-4.149,31.134c-5.716,11.975-14.66,21.128-26.159,27.644
				c-3.032,1.718-6.528,2.94-9.96,3.552c-5.7,1.016-9.187,4.253-11.058,9.408c-1.662,4.577-2.975,9.281-4.492,13.913
				c-4.279,13.064-7.994,26.35-13.01,39.125c-8.172,20.813-22.463,37.073-40.169,50.47c-25.79,19.514-55.021,30.309-86.899,34.467
				C891.801,544.635,869.808,543.261,848.373,535.982z M891.654,661.502c35.359,2.575,66.507-9.1,94.364-30.014
				c9.181-6.893,17.143-15.423,25.568-23.305c2.59-2.423,4.735-5.324,7.336-7.734c2.072-1.92,4.602-4.909,6.796-4.798
				c4.266,0.216,9.338-0.987,12.726,3.464c1.294,1.699,3.229,2.908,4.322,3.861c-9.33,10.895-18.348,21.55-27.499,32.089
				c-17.563,20.226-37.893,36.952-62.791,47.304c-31.052,12.91-62.617,13.442-94.274,2.069
				c-10.579-3.801-19.855-9.886-28.004-17.629c-2.088-1.984-4.074-4.111-5.87-6.362c-7.175-8.991-6.176-12.053,4.762-15.906
				c1.784-0.628,3.364-2.021,4.839-3.292c1.982-1.708,3.771-3.641,6.407-6.228c0.821,1.311,1.293,2.358,2.019,3.182
				C855.436,653.051,872.38,660.099,891.654,661.502z M722.218,402.965c-10.756-12.559-14.241-27.267-12.023-43.415
				c0.502-3.654,1.374-7.473,5.664-10.03c6.155,2.846,10.088,7.412,11.108,14.674c1.786,12.711,3.805,25.39,5.847,38.062
				c0.591,3.664,1.597,7.261,2.587,11.662C729.642,410.986,725.763,407.105,722.218,402.965z M740.344,646.951
				c-8.124-14.755-12.671-30.729-15.631-47.183c-4.406-24.498-3.814-49.068-0.612-73.645c3.097-23.768,6.44-47.508,9.15-71.32
				c1.097-9.642,0.805-19.441,1.155-29.46c4.54,0.765,5.968,4.127,7.24,7.726c7.163,20.282,17.729,38.693,30.757,55.739
				c20.342,26.617,45.549,46.528,77.934,56.542c0.83,0.257,1.62,0.64,2.911,1.158c0.173,2.771,0.519,5.612,0.499,8.45
				c-0.132,18.585-3.212,36.678-9.523,54.168c-2.877,7.972-6.831,15.396-12.135,22.082c-3.943,4.971-8.848,7.619-15.261,8.254
				c-20.288,2.009-39.4,8.448-58.14,16.134c-2.65,1.087-5.277,2.229-7.919,3.348C745.644,656.205,742.915,651.621,740.344,646.951z
				 M254.713,941.719c3.11-29.697,11.775-57.806,23.765-84.979c6.903-15.645,13.277-31.608,21.415-46.6
				c9.079-16.725,11.53-34.766,13.969-52.998c2.709-20.254,5.07-40.557,8.065-60.768c0.9-6.074,3.077-12.039,5.306-17.807
				c1.414-3.659,3.614-7.189,6.141-10.207c6.611-7.894,13.368-7.414,18.718,1.245c1.962,3.175,3.455,6.727,4.638,10.281
				c3.852,11.568,4.522,23.545,3.591,35.588c-1.37,17.724-3.275,35.409-4.461,53.144c-0.501,7.492,0.242,15.068,0.44,22.605
				c0.017,0.661,0.165,1.324,0.302,1.976c0.932,4.449,2.068,8.938,7.136,10.331c5.201,1.43,8.575-1.982,11.049-5.687
				c3.561-5.334,7.085-10.845,9.548-16.731c6.167-14.74,11.628-29.775,17.556-44.618c8.808-22.057,17.327-44.248,26.874-65.984
				c4.338-9.876,10.532-19.007,16.52-28.054c2.492-3.765,6.299-6.946,10.112-9.487c7.213-4.807,14.667-3.341,20.053,3.491
				c5.696,7.225,7.579,15.765,5.939,24.546c-1.619,8.673-3.833,17.398-7.113,25.567c-7.941,19.778-16.81,39.18-25.005,58.858
				c-6.064,14.56-11.492,29.379-14.519,44.931c-1.656,8.513-3.228,17.08-1.067,25.758c0.48,1.925,1.03,3.898,1.946,5.639
				c3.851,7.317,11.907,9.479,18.965,5.313c5.681-3.353,10.166-7.955,13.663-13.437c3.461-5.424,6.694-11.01,9.736-16.681
				c22.927-42.737,49.447-83.275,75.998-123.777c5.445-8.306,12.251-15.774,18.898-23.209c2.734-3.059,6.479-5.451,10.168-7.367
				c6.469-3.358,11.862-2.289,16.955,2.945c7.844,8.061,10.385,18.178,9.168,28.894c-0.867,7.635-2.51,15.498-5.545,22.506
				c-6.431,14.851-13.456,29.505-21.217,43.705c-14.595,26.704-30.086,52.916-44.779,79.567
				c-5.56,10.084-10.175,20.718-14.73,31.312c-1.525,3.547-2.042,7.742-2.095,11.654c-0.066,4.826,3.303,8.064,8.109,7.692
				c3.639-0.282,7.652-1.185,10.649-3.124c5.741-3.714,11.419-7.838,16.16-12.727c11.911-12.281,23.34-25.032,34.862-37.685
				c21.1-23.173,42.082-46.453,63.224-69.588c4.039-4.42,8.343-8.674,12.981-12.444c3.565-2.897,7.637-5.404,11.86-7.198
				c5.655-2.401,9.941-0.221,12.228,5.517c2.025,5.081,2.206,10.392,1.383,15.757c-1.36,8.873-4.094,17.354-8.504,25.119
				c-6.137,10.808-12.311,21.647-19.281,31.921c-24.2,35.675-48.877,71.026-73.096,106.689
				c-7.729,11.382-14.865,23.194-21.736,35.119c-3.164,5.492-5.036,11.729-8.009,18.865c-9.618,0-20.061-0.571-30.42,0.122
				c-20.042,1.34-38.499,8.37-56.299,17.287c-0.788,0.395-1.905,0.778-2.169,1.445c-0.589,1.484-1.295,3.326-0.859,4.665
				c0.28,0.859,2.534,1.536,3.86,1.467c1.454-0.076,2.887-1.045,4.28-1.726c28.575-13.989,58.592-18.521,90.101-14.247
				c20.271,2.75,40.668,5.069,61.123,2.864c17.202-1.854,34.305-4.661,51.429-7.203c10.978-1.629,21.895-3.677,32.877-5.282
				c7.551-1.103,15.088-0.672,22.397,1.769c6.308,2.106,11.464,5.746,15.035,11.489c6.244,10.043,4.925,21.403-4.405,28.658
				c-5.169,4.019-11.198,7.477-17.39,9.523c-14.944,4.936-30.173,9.028-45.356,13.214c-24.816,6.841-49.861,12.912-74.487,20.373
				c-25.578,7.75-49.383,19.885-73.075,32.146c-14.393,7.449-28.807,14.909-43.558,21.6c-19.445,8.82-39.915,13.457-61.445,12.722
				c-9.821-0.335-19.469-1.531-28.904-4.338c-1.681-0.5-3.496-1.134-5.155-0.931c-1.275,0.156-3.056,1.319-3.41,2.42
				c-0.358,1.116,0.358,3.238,1.323,3.971c1.704,1.294,3.894,2.067,5.988,2.71c12.687,3.891,25.74,4.627,38.901,4.317
				c14.561-0.344,28.652-3.193,42.385-7.959c1.459-0.506,2.969-0.868,4.464-1.267c0.149-0.04,0.355,0.131,0.943,0.371
				c-0.13,1.144-0.071,2.473-0.448,3.664c-4.15,13.109-7.706,26.456-12.722,39.229c-7.63,19.429-20.179,35.527-36.978,47.979
				c-29.198,21.643-60.845,23.992-93.993,10.652c-18.664-7.511-34.403-19.355-47.528-34.596
				c-12.37-14.364-19.333-31.307-22.682-49.744c-3.951-21.755-4.944-43.696-2.866-65.741c0.057-0.606,0.367-1.187,0.806-2.546
				c1.673,1.567,3.104,2.773,4.38,4.126c8.471,8.984,18.041,16.464,29.345,21.581c1.412,0.639,2.918,1.647,4.324,1.562
				c1.539-0.093,3.719-0.896,4.313-2.058c0.564-1.105-0.171-3.354-1.056-4.578c-0.822-1.136-2.561-1.654-3.956-2.322
				c-21.503-10.294-36.389-26.769-44.607-48.997C254.957,1005.185,251.345,973.88,254.713,941.719z M1374.237,1480.438
				c10.322,51.378,21.756,102.533,32.693,153.788c9.688,45.403,19.374,90.836,25.47,136.875
				c4.489,33.906,7.534,68.009,10.857,102.06c0.791,8.102,0.117,16.347,0.117,25.006c-142.59,0-284.612,0-427.006,0l-0.007,0.007
				h-60.747c-136.69,0-273,0-409.642,0c2.267-10.845,4.629-21.217,6.584-31.664c6.169-32.964,11.776-66.038,18.378-98.914
				c6.513-32.433,13.841-64.705,21.052-96.994c7.266-32.535,13.112-65.32,17.995-98.286c5.6-37.804,12.673-75.334,20.603-112.716
				c3.133-14.77,5.688-29.664,8.317-44.536c0.487-2.756,0.069-5.672,0.069-9.154c13.633-4.004,27.117-8.459,40.853-11.914
				c66.096-16.623,132.142-33.469,198.436-49.271c54.413-12.97,109.054-25.034,163.772-36.662
				c46.708-9.925,93.85-17.55,141.214-23.769c37.474-4.92,75.037-8.76,112.816-10.08c13.282-0.464,26.594-0.074,39.677-0.074
				c2.006,12.327,3.548,23.307,5.606,34.189C1352.192,1365.722,1362.733,1423.177,1374.237,1480.438z M1624.666,914.443
				c-9.108,45.348-31.993,82.082-69.595,109.077c-35.212,25.28-74.244,30.045-115.577,19.164
				c-21.008-5.531-40.718-14.105-58.08-27.394c-5.093-3.898-9.484-8.701-14.401-12.845c-3.744-3.155-4.559-7.125-4.91-11.736
				c-1.756-23.042-3.761-46.066-5.718-69.093c-0.169-1.985-0.295-4.094-1.078-5.864c-0.517-1.169-2.461-2.764-3.256-2.518
				c-1.35,0.418-3.123,2.053-3.253,3.326c-0.335,3.279,0.068,6.645,0.289,9.969c3.516,52.997,6.85,106.007,10.647,158.984
				c2.78,38.785,5.838,77.556,9.415,116.274c2.279,24.668,8.024,48.626,18.491,71.264c0.428,0.925,0.704,1.92,1.295,3.563
				c-1.501-0.289-2.341-0.319-3.077-0.611c-18.252-7.241-37.434-9.344-56.811-9.953c-34.05-1.07-67.951,1.357-101.805,4.8
				c-86.306,8.778-171.541,24.123-255.939,43.726c-94.919,22.046-189.509,45.529-284.099,68.967
				c-21.932,5.435-43.425,12.803-64.835,20.115c-9.373,3.201-18.256,8.093-26.947,12.957c-7.835,4.385-14.518,10.318-17.732,19.972
				c-5.753-6.371-7.927-13.583-9.057-21.16c-2.028-13.597-0.404-27.141,1.903-40.477c12.381-71.56,24.958-143.086,37.72-214.579
				c5.271-29.528,10.356-59.067,13.437-88.917c0.227-2.202,0.499-4.5,0.094-6.629c-0.228-1.194-1.705-2.836-2.799-2.988
				c-1.112-0.155-3.002,0.99-3.55,2.072c-0.867,1.713-1.007,3.835-1.267,5.809c-1.073,8.149-2.201,16.294-3.063,24.466
				c-0.7,6.635-3.134,12.536-7.315,17.58c-12.044,14.535-23.44,29.727-36.573,43.216c-40.817,41.922-86.981,77.288-136.624,108.132
				c-6.963,4.326-14.357,8-21.723,11.628c-22.333,11-45.673,13.899-70.021,8.324c-13.668-3.129-26.968-7.291-39.892-12.791
				c-32.835-13.974-52.048-38.877-59.812-73.317c-5.169-22.929-4.714-45.904-0.988-68.896c4.349-26.841,12.047-52.792,21.607-78.211
				c0.309-0.821,0.785-1.579,1.445-2.884c3.44,4.83,6.412,8.66,4.995,15.372c-3.134,14.835-2.942,30.028-2.145,45.163
				c0.691,13.124,2.392,26.077,5.685,38.832c5.55,21.5,16.613,39.597,33.026,54.475c19.563,17.734,41.901,29.79,68.372,33.352
				c28.937,3.895,54.545-3.937,77.082-22.18c20.507-16.598,33.577-38.193,41.734-63.011c1.155-3.515,2.334-7.023,4.031-10.448
				c1.215,6.76,0.251,13.424-0.554,20.034c-0.589,4.83-1.929,9.568-2.909,14.353c-0.311,1.521-0.685,3.05-0.773,4.59
				c-0.124,2.158,0.505,4.032,2.993,4.466c2.377,0.414,3.793-0.954,4.632-2.942c0.513-1.216,0.738-2.555,1.084-3.841
				c4.876-18.098,4.568-36.513,3.2-54.965c-0.172-2.318-1.441-4.555-2.242-6.951c0.395-0.424,0.747-1.071,1.288-1.346
				c18.805-9.559,37.702-18.938,56.431-28.642c34.546-17.898,71.227-29.679,108.894-38.819c18.978-4.605,37.868-9.592,56.708-14.734
				c6.18-1.687,12.226-4.084,18.057-6.76c4.396-2.018,8.701-4.568,12.442-7.623c14.768-12.063,15.671-32.07,2.283-45.715
				c-7.919-8.071-17.921-11.823-28.898-11.574c-10.605,0.241-21.229,1.62-31.751,3.146c-19.33,2.804-38.533,6.526-57.896,9.044
				c-20.623,2.682-41.261,0.937-61.792-1.862c-3.724-0.508-4.797-1.928-3.701-5.419c1.057-3.365,2.434-6.728,4.256-9.737
				c6.21-10.259,12.359-20.58,19.105-30.485c25.142-36.915,50.679-73.563,75.701-110.559c7.824-11.568,14.949-23.672,21.551-35.983
				c5.814-10.841,9.507-22.596,8.504-35.18c-0.329-4.124-1.244-8.42-2.928-12.172c-3.741-8.338-11.84-11.992-20.447-8.967
				c-4.927,1.731-10.078,4.18-13.809,7.702c-10.968,10.356-21.575,21.136-31.785,32.245c-24.816,27.002-49.24,54.364-74.029,81.391
				c-5.533,6.033-11.726,11.512-17.991,16.8c-2.727,2.302-6.403,3.48-9.647,5.169c-0.415-0.346-0.83-0.692-1.245-1.039
				c0.629-2.691,0.886-5.54,1.955-8.044c3.31-7.754,6.464-15.632,10.515-23.003c12.408-22.582,24.554-45.354,38.096-67.251
				c8.171-13.213,19.089-24.654,33.426-31.805c15.293-7.627,30.495-15.535,46.222-22.168c30.495-12.861,60.867-25.914,90.41-40.886
				c17.679-8.96,36.344-15.474,55.676-19.971c1.928-0.448,3.892-0.742,6.249-1.184c1.577,16.863,13.322,26.159,25.555,34.681
				c17.084,11.903,36.681,16.45,57.18,17.751c40.169,2.551,74.393-11.594,104.643-37.093c12.65-10.663,23.511-22.968,33.722-35.899
				c6.376-8.076,13.438-15.341,22.326-20.775c2.828-1.729,5.384-2.479,8.686-2.197c27.003,2.306,54.055,4.085,81.021,6.751
				c21.65,2.141,43.255,4.928,64.782,8.092c27.466,4.038,54.838,8.875,81.367,17.252c12.878,4.067,25.328,9.488,37.975,14.288
				c4.241,1.61,6.635,4.403,7.791,9.048c3.644,14.648,7.869,29.15,11.674,43.759c0.829,3.184,1.188,6.584,1.152,9.878
				c-0.061,5.52-1.74,7.01-7.289,7.05c-12.519,0.09-24.756-2.106-36.947-4.674c-14.985-3.157-29.904-6.712-44.993-9.26
				c-15.807-2.67-31.812-3.7-47.75-0.718c-10.601,1.984-19.704,6.783-26.337,15.573c-11.574,15.34-8.812,34.135,7.203,44.646
				c6.421,4.214,13.756,7.168,20.928,10.069c7.188,2.907,14.691,5.033,22.057,7.499c23.765,7.957,45.637,19.693,66.446,33.495
				c14.442,9.579,28.724,19.398,43.133,29.026c14.237,9.513,28.816,18.462,44.551,25.32c2.972,1.295,4.154,3.472,5.465,6.137
				c19.531,39.706,47.792,70.939,88.313,90.008c15.698,7.388,32.248,11.425,49.726,10.197c5.497-0.386,10.927-1.726,16.39-2.62
				c3.214-0.526,6.473-0.859,9.631-1.615c1.879-0.45,3.784-1.294,5.365-2.406c8.177-5.753,16.395-11.462,24.331-17.538
				c13.279-10.165,22.941-23.436,31.402-37.667c0.996-1.675,2.021-3.333,3.927-4.841
				C1624.693,912.185,1624.884,913.355,1624.666,914.443z M1762.793,405.043c-2.723,9.125-5.891,18.165-9.556,26.953
				c-12.138,29.1-24.688,58.028-36.89,87.101c-12.154,28.958-19.04,59.094-19.892,90.582c-0.487,17.994-1.189,35.989-2.184,53.962
				c-1.897,34.274-6.133,68.165-18.659,100.463c-9.31,24.005-22.928,45.075-42.86,61.743c-9.809,8.203-20.79,14.388-32.557,19.271
				c-1.839,0.763-3.868,1.369-5.339,2.607c-0.955,0.804-1.746,2.885-1.352,3.911c0.405,1.058,2.342,2.133,3.597,2.12
				c1.914-0.021,3.876-0.827,5.715-1.557c4.251-1.688,8.44-3.531,13.718-5.76c-1.528,3.894-2.797,6.651-3.707,9.521
				c-4.894,15.444-9.463,30.996-14.616,46.353c-3.593,10.708-7.077,21.6-12.142,31.637c-10.128,20.071-26.322,32.662-49.176,35.464
				c-12.357,1.515-24.38-0.494-36.135-4.198c-18.501-5.83-34.762-15.693-49.443-28.216c-17.418-14.858-31.708-32.318-42.831-52.348
				c-0.86-1.548-1.659-3.133-2.413-4.736c-0.156-0.332,0.014-0.818,0.062-1.846c1.744,0.5,3.38,0.922,4.987,1.436
				c23.444,7.503,47.455,9.092,71.805,6.716c9.059-0.884,18.083-2.144,27.107-3.35c5.289-0.706,7.461-2.573,6.831-5.484
				c-0.548-2.533-2.767-3.242-7.92-2.674c-13.242,1.46-26.457,3.543-39.739,4.186c-29.952,1.451-58.4-5.119-84.672-19.449
				c-16.152-8.81-31.58-18.978-47.124-28.865c-11.619-7.39-22.844-15.394-34.349-22.967c-23.141-15.233-47.908-27.039-74.39-35.279
				c-7.405-2.304-14.755-4.935-21.839-8.075c-4.603-2.04-9.057-4.822-12.907-8.068c-6.828-5.759-8.29-13.436-5.646-21.802
				c2.799-8.854,9.017-14.634,17.436-18.106c7.079-2.919,14.566-3.872,22.167-3.979c21.501-0.304,42.427,3.627,63.186,8.705
				c16.641,4.071,33.38,7.646,50.597,7.679c11.763,0.023,23.544-0.271,35.286-0.95c19.367-1.121,38.747-1.728,57.639,3.29
				c9.797,2.602,19.185,6.815,28.648,10.576c4.874,1.937,7.356,2.192,8.13-0.321c1.184-3.845-1.954-4.955-4.449-6.315
				c-18.27-9.96-37.84-15.435-58.613-15.794c-13.536-0.233-27.089,0.596-40.636,0.909c-3.508,0.081-7.019,0.012-10.874,0.012
				c2.035-10.369-0.819-19.769-3.404-29.194c-11.511-41.963-23.341-83.842-34.463-125.908c-7.829-29.615-14.14-59.635-22.181-89.189
				c-6.522-23.972-14.793-47.464-21.911-71.282c-2.789-9.333-5.132-18.888-6.558-28.507c-0.89-6.004-0.583-12.521,0.755-18.453
				c3.19-14.142,16.405-19.81,28.863-12.437c4.649,2.752,9.116,6.667,12.159,11.09c5.51,8.009,10.912,16.382,14.536,25.341
				c8.651,21.384,16.216,43.206,24.269,64.834c4.879,13.103,9.346,26.393,14.963,39.175c3.446,7.841,7.908,15.545,13.33,22.146
				c12.634,15.384,28.418,12.577,36.081-5.824c3.833-9.202,5.008-18.988,4.667-28.756c-0.574-16.423-1.675-32.842-3.069-49.219
				c-3.263-38.332-10.232-76.151-16.159-114.116c-2.158-13.823-4.094-27.807-1.824-41.8c0.909-5.6,2.506-11.366,5.131-16.349
				c5.135-9.75,14.957-12.669,25.082-8.342c5.87,2.509,10.41,6.691,14.261,11.712c6.73,8.776,11.325,18.713,14.087,29.252
				c5.344,20.389,10.309,40.894,14.775,61.493c6.963,32.11,13.193,64.379,20.155,96.489c1.824,8.411,4.838,16.629,8.013,24.655
				c1.759,4.446,4.478,8.762,7.661,12.338c5.377,6.043,12.857,5.657,17.682-0.859c2.72-3.673,4.785-8.032,6.268-12.381
				c3.68-10.798,5.028-22.104,5.444-33.438c0.84-22.876,1.17-45.771,1.965-68.65c0.671-19.326,1.632-38.671,6.168-57.564
				c1.702-7.087,4.046-14.094,6.883-20.805c1.776-4.201,4.578-8.187,7.692-11.557c7.111-7.698,16.107-8.162,24.483-1.818
				c4.934,3.737,8.524,8.691,10.265,14.473c2.291,7.611,4.448,15.417,5.255,23.284c1.291,12.579,1.742,25.272,1.981,37.927
				c0.49,26.003,0.202,52.025,1.024,78.014c0.497,15.735,2.089,31.47,3.968,47.112c0.808,6.729,2.896,13.523,5.618,19.757
				c5.889,13.489,16.904,17,29.32,8.926c7.36-4.786,14.352-10.666,20.114-17.272c10.936-12.539,21.372-25.59,31.094-39.093
				c12.457-17.301,23.865-35.354,36.014-52.883c4.54-6.55,9.458-12.956,14.976-18.682c8.622-8.947,15.277-7.265,19.804,4.445
				C1765.445,387.019,1765.449,396.145,1762.793,405.043z"/>
		</g>
	</g>
	<rect style="fill:none;" width="2000" height="2000"/>
</g>
</svg>
