 <svg xmlns="http://www.w3.org/2000/svg" viewBox="0 0 500 500" width="500" height="500" preserveAspectRatio="xMidYMid meet" style="width: 100%; height: 100%; transform: translate3d(0px, 0px, 0px); content-visibility: visible;"><defs><clipPath id="__lottie_element_2"><rect width="500" height="500" x="0" y="0"></rect></clipPath></defs><g clip-path="url(#__lottie_element_2)"><g transform="matrix(0.16722999513149261,0,0,0.16722999513149261,-71.08160400390625,69.3916015625)" opacity="1" style="display: block;"><path stroke-linecap="round" stroke-linejoin="miter" fill-opacity="0" stroke-miterlimit="4" stroke="rgb(0,0,0)" stroke-opacity="1" stroke-width="52" d=" M2477.78,1023.03 C2491.85,992.93 2503.53,962.75 2512.25,932.74 C2522.86,896.26 2529.09,860.04 2529.92,824.51 C2529.99,821.8 2530.02,819.09 2530.02,816.37 C2530.02,643.33 2414.01,503.05 2216.71,503.05 C2019.41,503.05 1903.39,739.86 1903.39,739.86 C1903.39,739.86 1787.37,503.05 1590.07,503.05 C1392.77,503.05 1276.76,643.33 1276.76,816.37 C1276.76,819.09 1276.79,821.8 1276.86,824.51 C1277.97,871.68 1288.58,920.08 1306.32,968.66 M2406.48,1150.13 C2223.65,1422.59 1904.9,1657.95 1904.9,1657.95 C1904.9,1657.95 1582.64,1420 1400.32,1145.64 M1171,1076.2 C1171,1076.2 1414.1,1076.2 1414.1,1076.2 C1447.07,1076.2 1476.36,1055.13 1486.84,1023.86 C1486.84,1023.86 1550.64,833.45 1550.64,833.45 C1557.51,812.93 1587.48,816.19 1589.8,837.7 C1589.8,837.7 1615.45,1076.2 1615.45,1076.2 C1615.45,1076.2 1708.74,1076.2 1708.74,1076.2 C1726.92,1076.2 1742.95,1088.13 1748.16,1105.55 C1748.16,1105.55 1811.68,1317.7 1811.68,1317.7 C1821.85,1351.67 1869.34,1353.31 1881.83,1320.13 C1881.83,1320.13 1962.17,1106.71 1962.17,1106.71 C1969.08,1088.35 1986.64,1076.2 2006.25,1076.2 C2006.25,1076.2 2133.1,1076.2 2133.1,1076.2 C2133.1,1076.2 2205.98,849.42 2205.98,849.42 C2213.67,825.48 2248.09,827.14 2253.44,851.72 C2253.44,851.72 2293.58,1036.14 2293.58,1036.14 C2298.68,1059.52 2319.37,1076.2 2343.3,1076.2 C2343.3,1076.2 2592.15,1076.2 2655.48,1076.2"></path><g opacity="1" transform="matrix(1,0,0,1,0,0)"><g opacity="1" transform="matrix(1.0021840333938599,0,0,1.0021840333938599,-4.1571044921875,-2.35986328125)"><g opacity="1" transform="matrix(1,0,0,1,1903.3900146484375,763.7329711914062)"></g><g opacity="1" transform="matrix(1,0,0,1,1903.4000244140625,1401.095947265625)"></g></g><g opacity="1" transform="matrix(1,0,0,1,1920.5,1083.123046875)"></g></g></g></g></svg>